<?xml version="1.0" standalone="no"?><!DOCTYPE svg PUBLIC "-//W3C//DTD SVG 1.1//EN" "http://www.w3.org/Graphics/SVG/1.1/DTD/svg11.dtd"><svg t="1579930024606" class="icon" viewBox="0 0 1024 1024" version="1.1" xmlns="http://www.w3.org/2000/svg" p-id="986" xmlns:xlink="http://www.w3.org/1999/xlink" width="200" height="200"><defs><style type="text/css"></style></defs><path d="M496.64 503.296c-120.832 0-219.136-95.744-219.136-213.504S375.808 76.8 496.64 76.8c120.832 0 219.136 95.744 219.136 213.504s-98.304 212.992-219.136 212.992z m0-358.912c-83.456 0-151.04 65.024-151.04 145.408S413.696 435.2 496.64 435.2s151.04-65.024 151.04-145.408-67.584-145.408-151.04-145.408z m422.4 802.816c-18.432 0-33.792-15.36-33.792-33.792 0-145.92-97.792-302.592-372.736-302.592-180.224 0-372.736 79.36-372.736 302.592 0 18.432-15.36 33.792-33.792 33.792-18.432 0-33.792-15.36-33.792-33.792 0-116.736 45.568-213.504 132.096-279.04 78.336-59.392 184.32-91.136 308.224-91.136s229.888 31.232 308.224 91.136c86.528 66.048 132.096 162.816 132.096 279.04 0 18.432-15.36 33.792-33.792 33.792z" p-id="987"></path><path d="M927.232 951.296h-830.464c-13.824 0-25.088-11.264-25.088-25.088v-10.752c0-13.824 11.264-25.088 25.088-25.088h830.464c13.824 0 25.088 11.264 25.088 25.088v10.752c0 13.824-11.264 25.088-25.088 25.088z" p-id="988"></path></svg>